<svg xmlns="http://www.w3.org/2000/svg" width="19" height="20" viewBox="0 0 19 20">
    <path fill="#777" fill-rule="evenodd" d="M11.156 1.713L2.808 10.06l3.982 3.983 8.349-8.349a2.82 2.82 0 0 0 0-3.982 2.799 2.799 0 0 0-1.991-.825c-.753 0-1.46.293-1.992.825zM4.87 15.963l1.292-1.291-3.982-3.983-1.292 1.292v3.983H4.87zm.368.889H0v-5.238L10.529 1.085A3.692 3.692 0 0 1 13.148 0a3.704 3.704 0 0 1 2.62 6.323L5.237 16.852zM0 20h18.386v-.888H0V20zm15.664-9.183h2.722v-.888h-2.722v.888zm-3.11 2.987h5.832v-.888h-5.832v.888zm-3.332 3.09h9.164v-.888H9.222v.888z"/>
</svg>
