<svg xmlns="http://www.w3.org/2000/svg" width="20" height="20" viewBox="0 0 20 20">
    <path fill="#BBB" fill-rule="evenodd" d="M18.97 7.778H17.1a.698.698 0 0 1-.664-.444.699.699 0 0 1 .155-.783l1.323-1.322c.195-.195.302-.453.302-.728 0-.275-.107-.534-.302-.729l-1.686-1.686a1.054 1.054 0 0 0-1.457 0L13.45 3.409a.695.695 0 0 1-.501.212.747.747 0 0 1-.505-.2.694.694 0 0 1-.22-.52V1.03A1.03 1.03 0 0 0 11.192 0H8.807a1.03 1.03 0 0 0-1.03 1.03V2.9a.716.716 0 0 1-1.226.509L5.23 2.086a1.054 1.054 0 0 0-1.457 0L2.086 3.772a1.024 1.024 0 0 0-.302.729c0 .275.107.533.302.728L3.409 6.55a.7.7 0 0 1 .155.783.697.697 0 0 1-.663.444H1.03A1.03 1.03 0 0 0 0 8.808v2.384c0 .568.462 1.03 1.03 1.03H2.9c.301 0 .55.166.664.444a.699.699 0 0 1-.155.783L2.086 14.77a1.023 1.023 0 0 0-.302.728c0 .275.107.534.302.729l1.686 1.686c.39.39 1.067.39 1.457 0l1.322-1.323a.717.717 0 0 1 1.227.508v1.871c0 .568.462 1.03 1.03 1.03h2.384c.568 0 1.03-.462 1.03-1.03V17.1a.716.716 0 0 1 1.227-.509l1.322 1.323c.39.39 1.068.389 1.457 0l1.686-1.686c.195-.195.302-.454.302-.729 0-.275-.107-.533-.302-.728l-1.323-1.322a.7.7 0 0 1-.155-.783.698.698 0 0 1 .663-.444h1.871c.568 0 1.03-.462 1.03-1.03V8.807a1.03 1.03 0 0 0-1.03-1.03zM12.593 10A2.596 2.596 0 0 1 10 12.593 2.596 2.596 0 0 1 7.407 10 2.596 2.596 0 0 1 10 7.407 2.596 2.596 0 0 1 12.593 10z"/>
</svg>
