<svg xmlns="http://www.w3.org/2000/svg" width="30" height="30" viewBox="0 0 30 30">
    <g fill="#FFF" fill-rule="evenodd">
        <path d="M15 .174C6.812.174.174 6.812.174 15S6.812 29.826 15 29.826 29.826 23.188 29.826 15 23.188.174 15 .174zm0 27.21C8.172 27.384 2.616 21.828 2.616 15S8.172 2.616 15 2.616 27.384 8.172 27.384 15 21.828 27.384 15 27.384z"/>
        <path d="M19.95 8.323L15 13.273l-4.95-4.95-1.727 1.726L13.273 15l-4.95 4.95 1.726 1.727L15 16.727l4.95 4.95 1.727-1.726L16.727 15l4.95-4.95z"/>
    </g>
</svg>
