<svg xmlns="http://www.w3.org/2000/svg" width="90" height="89" viewBox="0 0 90 89">
    <path fill="#333" fill-rule="evenodd" d="M85.071 0H4.931A4.946 4.946 0 0 0 0 4.932v78.906a4.946 4.946 0 0 0 4.932 4.932h80.14a4.946 4.946 0 0 0 4.93-4.932V4.932A4.946 4.946 0 0 0 85.073 0zm1.233 43.152H46.851v-17.26h39.453v17.26zm-43.152 0H3.7v-17.26h39.453v17.26zM3.7 46.851h39.453v17.26H3.7v-17.26zm43.152 0h39.453v17.26H46.851v-17.26zM86.304 4.93v17.261H46.851V3.7h38.22a1.25 1.25 0 0 1 1.233 1.233zM4.932 3.7h38.22v18.493H3.7V4.932a1.25 1.25 0 0 1 1.233-1.233zm-1.233 80.14V67.81h39.453v17.261H4.932a1.25 1.25 0 0 1-1.233-1.233zM85.07 85.07h-38.22v-17.26h39.453v16.027a1.25 1.25 0 0 1-1.233 1.233z"/>
</svg>
