<svg xmlns="http://www.w3.org/2000/svg" width="90" height="90" viewBox="0 0 90 90">
    <g fill="none" fill-rule="evenodd">
        <path fill="#EB5E3B" d="M75.486 13.386L63.799 27.41A26.3 26.3 0 0 1 70.96 45.5c0 1.89-.202 3.73-.578 5.506l17.333 5.342a44.998 44.998 0 0 0 1.323-10.849 44.616 44.616 0 0 0-13.552-32.113z"/>
        <path fill="#00A4C7" d="M32.785 22.339A25.613 25.613 0 0 1 45 19.254c5.296 0 10.22 1.607 14.327 4.36l11.69-14.03C63.728 4.177 54.736.977 45 .977a43.457 43.457 0 0 0-22.007 5.964l9.792 15.398z"/>
        <path fill="#64BD5F" d="M68.333 56.604C64.507 64.87 56.74 70.786 46.957 71.635V89.96c17.608-.927 32.468-12.253 38.673-27.994l-17.297-5.36z"/>
        <path fill="#913089" d="M41.087 71.502C28.37 69.77 18.835 58.792 18.835 45.498c0-7.907 3.566-14.992 9.038-19.803l-9.784-15.468C7.645 18.37.732 31.135.732 45.498c0 23.396 17.855 42.565 40.355 44.371V71.502z"/>
    </g>
</svg>
