<svg xmlns="http://www.w3.org/2000/svg" width="132" height="24" viewBox="0 0 132 24">
    <path fill="#333" fill-rule="evenodd" d="M16.096.384H0v22.4h2.528v-9.76h12.128V10.72H2.528v-8h13.568V.384zm25.752 11.168C41.848 5.344 37.272 0 30.456 0S19 5.408 19 11.616c0 6.208 4.576 11.552 11.392 11.552s11.456-5.408 11.456-11.616zm-2.624.064c0 5.12-3.648 9.216-8.768 9.216-5.12 0-8.832-4.16-8.832-9.28 0-5.12 3.648-9.216 8.768-9.216 5.12 0 8.832 4.16 8.832 9.28zm28.824-.064C68.048 5.344 63.472 0 56.656 0S45.2 5.408 45.2 11.616c0 6.208 4.576 11.552 11.392 11.552s11.456-5.408 11.456-11.616zm-2.624.064c0 5.12-3.648 9.216-8.768 9.216-5.12 0-8.832-4.16-8.832-9.28 0-5.12 3.648-9.216 8.768-9.216 5.12 0 8.832 4.16 8.832 9.28zm26.648-.064c0-6.336-4.864-11.168-11.904-11.168h-7.776v22.4h7.776c7.04 0 11.904-4.896 11.904-11.232zm-2.624.064c0 4.992-3.616 8.832-9.28 8.832H74.92V2.72h5.248c5.664 0 9.28 3.904 9.28 8.896zm14.64 11.168V.384H99.16v22.4h4.928zm27.736-2.816l-2.304-1.952a11.322 11.322 0 0 0 1.984-6.432v-.064c0-6.368-4.96-11.52-11.872-11.52s-11.936 5.216-11.936 11.584v.064c0 6.368 4.96 11.52 11.872 11.52 2.496 0 4.768-.704 6.656-1.92l2.464 2.208 3.136-3.488zm-5.472-8.32c0 1.12-.192 2.144-.608 3.072l-3.68-3.328-3.136 3.52 3.648 3.104a7.219 7.219 0 0 1-2.944.608c-3.968 0-6.784-3.2-6.784-7.04v-.064c0-3.84 2.752-6.976 6.72-6.976s6.784 3.2 6.784 7.04v.064z"/>
</svg>
